<svg height="512" viewBox="0 0 512 512" width="512" xmlns="http://www.w3.org/2000/svg"><g id="Filled_outline" data-name="Filled outline"><rect fill="#348ed8" height="328" rx="24" width="400" x="56" y="96"/><path d="m432 424h-352a24 24 0 0 1 -24-24v-24l400-240v264a24 24 0 0 1 -24 24z" fill="#3289d1"/><path d="m464 440h-416a24 24 0 0 1 -24-24v-24h184l8 8h80l8-8h184v24a24 24 0 0 1 -24 24z" fill="#dfdfdd"/><g fill="#4db6e4"><rect height="32" rx="8" width="32" x="384" y="136"/><rect height="32" rx="8" width="32" x="320" y="136"/><rect height="32" rx="8" width="32" x="384" y="200"/><rect height="32" rx="8" width="32" x="320" y="200"/><rect height="32" rx="8" width="32" x="384" y="264"/><rect height="32" rx="8" width="32" x="320" y="264"/><rect height="32" rx="8" width="32" x="384" y="328"/><rect height="32" rx="8" width="32" x="320" y="328"/></g><path d="m64 152h-16v-32a32.036 32.036 0 0 1 32-32h352a32.036 32.036 0 0 1 32 32v216h-16v-216a16.019 16.019 0 0 0 -16-16h-352a16.019 16.019 0 0 0 -16 16zm32-24h-16v16h16zm-16 96h16v-64h-16zm416 168v24a32.036 32.036 0 0 1 -32 32h-416a32.036 32.036 0 0 1 -32-32v-24a8 8 0 0 1 8-8h24v-216h16v216h144a8 8 0 0 1 5.657 2.343l5.656 5.657h73.374l5.656-5.657a8 8 0 0 1 5.657-2.343h144v-32h16v32h24a8 8 0 0 1 8 8zm-16 8h-172.687l-5.656 5.657a8 8 0 0 1 -5.657 2.343h-80a8 8 0 0 1 -5.657-2.343l-5.656-5.657h-172.687v16a16.019 16.019 0 0 0 16 16h416a16.019 16.019 0 0 0 16-16zm-56-240a16.019 16.019 0 0 1 -16 16h-16a16.019 16.019 0 0 1 -16-16v-16a16.019 16.019 0 0 1 16-16h16a16.019 16.019 0 0 1 16 16zm-15.99 0-.01-16h-16v16zm-48.01 0a16.019 16.019 0 0 1 -16 16h-16a16.019 16.019 0 0 1 -16-16v-16a16.019 16.019 0 0 1 16-16h16a16.019 16.019 0 0 1 16 16zm-15.99 0-.01-16h-16v16zm79.99 64a16.019 16.019 0 0 1 -16 16h-16a16.019 16.019 0 0 1 -16-16v-16a16.019 16.019 0 0 1 16-16h16a16.019 16.019 0 0 1 16 16zm-15.99 0-.01-16h-16v16zm-48.01 0a16.019 16.019 0 0 1 -16 16h-16a16.019 16.019 0 0 1 -16-16v-16a16.019 16.019 0 0 1 16-16h16a16.019 16.019 0 0 1 16 16zm-15.99 0-.01-16h-16v16zm79.99 64a16.019 16.019 0 0 1 -16 16h-16a16.019 16.019 0 0 1 -16-16v-16a16.019 16.019 0 0 1 16-16h16a16.019 16.019 0 0 1 16 16zm-15.99 0-.01-16h-16v16zm-48.01 0a16.019 16.019 0 0 1 -16 16h-16a16.019 16.019 0 0 1 -16-16v-16a16.019 16.019 0 0 1 16-16h16a16.019 16.019 0 0 1 16 16zm-15.99 0-.01-16h-16v16zm79.99 48v16a16.019 16.019 0 0 1 -16 16h-16a16.019 16.019 0 0 1 -16-16v-16a16.019 16.019 0 0 1 16-16h16a16.019 16.019 0 0 1 16 16zm-15.99 16-.01-16h-16v16zm-48.01-16v16a16.019 16.019 0 0 1 -16 16h-16a16.019 16.019 0 0 1 -16-16v-16a16.019 16.019 0 0 1 16-16h16a16.019 16.019 0 0 1 16 16zm-15.99 16-.01-16h-16v16z"/></g></svg>